<?xml version="1.0" encoding="UTF-8" standalone="no"?>
<!DOCTYPE svg PUBLIC "-//W3C//DTD SVG 1.1//EN"
 "http://www.w3.org/Graphics/SVG/1.1/DTD/svg11.dtd">
<!-- Generated by graphviz version 2.43.0 (0)
 -->
<!-- Title: %3 Pages: 1 -->
<svg width="2220pt" height="904pt"
 viewBox="0.00 0.00 2219.87 904.42" xmlns="http://www.w3.org/2000/svg" xmlns:xlink="http://www.w3.org/1999/xlink">
<g id="graph0" class="graph" transform="scale(1 1) rotate(0) translate(4 900.42)">
<title>%3</title>
<polygon fill="white" stroke="transparent" points="-4,4 -4,-900.42 2215.87,-900.42 2215.87,4 -4,4"/>
<text text-anchor="middle" x="1105.93" y="-37.8" font-family="Times,serif" font-size="14.00">Namespaces:</text>
<text text-anchor="middle" x="1105.93" y="-22.8" font-family="Times,serif" font-size="14.00">rdf: http://www.w3.org/1999/02/22&#45;rdf&#45;syntax&#45;ns#</text>
<text text-anchor="middle" x="1105.93" y="-7.8" font-family="Times,serif" font-size="14.00">xsd: http://www.w3.org/2001/XMLSchema#</text>
<!-- Rhttp://example.org/CzechRepublic -->
<g id="node1" class="node">
<title>Rhttp://example.org/CzechRepublic</title>
<ellipse fill="none" stroke="blue" cx="167.69" cy="-461.42" rx="167.87" ry="18"/>
<text text-anchor="middle" x="167.69" y="-457.72" font-family="Times,serif" font-size="14.00">http://example.org/CzechRepublic</text>
</g>
<!-- Rhttp://example.org/Country -->
<g id="node2" class="node">
<title>Rhttp://example.org/Country</title>
<ellipse fill="none" stroke="blue" cx="1467.81" cy="-589.42" rx="137.28" ry="18"/>
<text text-anchor="middle" x="1467.81" y="-585.72" font-family="Times,serif" font-size="14.00">http://example.org/Country</text>
</g>
<!-- Rhttp://example.org/CzechRepublic&#45;&gt;Rhttp://example.org/Country -->
<g id="edge1" class="edge">
<title>Rhttp://example.org/CzechRepublic&#45;&gt;Rhttp://example.org/Country</title>
<path fill="none" stroke="black" d="M204.14,-479.1C240.61,-496.44 299.54,-522.16 353.37,-535.42 532.32,-579.5 1061.28,-587.88 1320.41,-589.28"/>
<polygon fill="black" stroke="black" points="1320.64,-592.79 1330.65,-589.34 1320.67,-585.79 1320.64,-592.79"/>
<text text-anchor="middle" x="843.55" y="-589.22" font-family="Times,serif" font-size="14.00">rdf:type</text>
</g>
<!-- Rhttp://example.org/Landlocked -->
<g id="node3" class="node">
<title>Rhttp://example.org/Landlocked</title>
<ellipse fill="none" stroke="blue" cx="843.55" cy="-858.42" rx="152.17" ry="18"/>
<text text-anchor="middle" x="843.55" y="-854.72" font-family="Times,serif" font-size="14.00">http://example.org/Landlocked</text>
</g>
<!-- Rhttp://example.org/CzechRepublic&#45;&gt;Rhttp://example.org/Landlocked -->
<g id="edge2" class="edge">
<title>Rhttp://example.org/CzechRepublic&#45;&gt;Rhttp://example.org/Landlocked</title>
<path fill="none" stroke="black" d="M171.95,-479.75C183.72,-539.87 230.03,-731.98 353.37,-814.42 472.01,-893.73 644.58,-888.15 749.88,-874.78"/>
<polygon fill="black" stroke="black" points="750.4,-878.24 759.85,-873.46 749.48,-871.3 750.4,-878.24"/>
<text text-anchor="middle" x="476.37" y="-885.22" font-family="Times,serif" font-size="14.00">http://example.org/countryProp</text>
</g>
<!-- Rhttp://example.org/CentralEurope -->
<g id="node4" class="node">
<title>Rhttp://example.org/CentralEurope</title>
<ellipse fill="none" stroke="blue" cx="843.55" cy="-804.42" rx="167.87" ry="18"/>
<text text-anchor="middle" x="843.55" y="-800.72" font-family="Times,serif" font-size="14.00">http://example.org/CentralEurope</text>
</g>
<!-- Rhttp://example.org/CzechRepublic&#45;&gt;Rhttp://example.org/CentralEurope -->
<g id="edge3" class="edge">
<title>Rhttp://example.org/CzechRepublic&#45;&gt;Rhttp://example.org/CentralEurope</title>
<path fill="none" stroke="black" d="M173.2,-479.46C188,-534.41 240.76,-700.22 353.37,-769.42 380.28,-785.96 540.34,-795.09 670.16,-799.84"/>
<polygon fill="black" stroke="black" points="670.12,-803.34 680.24,-800.2 670.37,-796.34 670.12,-803.34"/>
<text text-anchor="middle" x="476.37" y="-799.22" font-family="Times,serif" font-size="14.00">http://example.org/in</text>
</g>
<!-- LBohemia -->
<g id="node5" class="node">
<title>LBohemia</title>
<polygon fill="none" stroke="black" points="804.05,-677.42 804.05,-713.42 883.05,-713.42 883.05,-677.42 804.05,-677.42"/>
<text text-anchor="middle" x="843.55" y="-691.72" font-family="Times,serif" font-size="14.00">Bohemia</text>
</g>
<!-- Rhttp://example.org/CzechRepublic&#45;&gt;LBohemia -->
<g id="edge4" class="edge">
<title>Rhttp://example.org/CzechRepublic&#45;&gt;LBohemia</title>
<path fill="none" stroke="black" d="M178.2,-479.44C201.5,-521.41 265.94,-625.35 353.37,-667.42 430.06,-704.33 685.7,-700.65 793.71,-697.28"/>
<polygon fill="black" stroke="black" points="794.12,-700.77 804,-696.95 793.89,-693.77 794.12,-700.77"/>
<text text-anchor="middle" x="476.37" y="-702.22" font-family="Times,serif" font-size="14.00">http://example.org/historicalName</text>
</g>
<!-- Rhttp://example.org/Austria -->
<g id="node6" class="node">
<title>Rhttp://example.org/Austria</title>
<ellipse fill="none" stroke="blue" cx="843.55" cy="-750.42" rx="133.48" ry="18"/>
<text text-anchor="middle" x="843.55" y="-746.72" font-family="Times,serif" font-size="14.00">http://example.org/Austria</text>
</g>
<!-- Rhttp://example.org/CzechRepublic&#45;&gt;Rhttp://example.org/Austria -->
<g id="edge5" class="edge">
<title>Rhttp://example.org/CzechRepublic&#45;&gt;Rhttp://example.org/Austria</title>
<path fill="none" stroke="black" d="M175.35,-479.57C194.36,-528.33 253.94,-662.25 353.37,-717.42 411.24,-749.54 579.3,-754.81 702.33,-754.01"/>
<polygon fill="black" stroke="black" points="702.63,-757.5 712.6,-753.92 702.57,-750.5 702.63,-757.5"/>
<text text-anchor="middle" x="476.37" y="-756.22" font-family="Times,serif" font-size="14.00">http://example.org/southBorder</text>
</g>
<!-- Rhttp://example.org/Germany -->
<g id="node7" class="node">
<title>Rhttp://example.org/Germany</title>
<ellipse fill="none" stroke="blue" cx="843.55" cy="-640.42" rx="141.88" ry="18"/>
<text text-anchor="middle" x="843.55" y="-636.72" font-family="Times,serif" font-size="14.00">http://example.org/Germany</text>
</g>
<!-- Rhttp://example.org/CzechRepublic&#45;&gt;Rhttp://example.org/Germany -->
<g id="edge6" class="edge">
<title>Rhttp://example.org/CzechRepublic&#45;&gt;Rhttp://example.org/Germany</title>
<path fill="none" stroke="black" d="M184.87,-479.4C214.63,-511.04 281.6,-575.96 353.37,-603.42 469.49,-647.86 612.26,-653.65 713.51,-650.42"/>
<polygon fill="black" stroke="black" points="713.92,-653.9 723.79,-650.05 713.68,-646.91 713.92,-653.9"/>
<text text-anchor="middle" x="476.37" y="-652.22" font-family="Times,serif" font-size="14.00">http://example.org/westBorder</text>
</g>
<!-- Rhttp://example.org/Poland -->
<g id="node8" class="node">
<title>Rhttp://example.org/Poland</title>
<ellipse fill="none" stroke="blue" cx="843.55" cy="-535.42" rx="130.78" ry="18"/>
<text text-anchor="middle" x="843.55" y="-531.72" font-family="Times,serif" font-size="14.00">http://example.org/Poland</text>
</g>
<!-- Rhttp://example.org/CzechRepublic&#45;&gt;Rhttp://example.org/Poland -->
<g id="edge7" class="edge">
<title>Rhttp://example.org/CzechRepublic&#45;&gt;Rhttp://example.org/Poland</title>
<path fill="none" stroke="black" d="M253.06,-477.02C284.47,-482.45 320.48,-488.22 353.37,-492.42 475.81,-508.06 616.21,-519.76 715.11,-526.98"/>
<polygon fill="black" stroke="black" points="714.92,-530.47 725.15,-527.71 715.43,-523.49 714.92,-530.47"/>
<text text-anchor="middle" x="476.37" y="-520.22" font-family="Times,serif" font-size="14.00">http://example.org/northBorder</text>
</g>
<!-- Rhttp://example.org/Slovakia -->
<g id="node9" class="node">
<title>Rhttp://example.org/Slovakia</title>
<ellipse fill="none" stroke="blue" cx="843.55" cy="-481.42" rx="138.38" ry="18"/>
<text text-anchor="middle" x="843.55" y="-477.72" font-family="Times,serif" font-size="14.00">http://example.org/Slovakia</text>
</g>
<!-- Rhttp://example.org/CzechRepublic&#45;&gt;Rhttp://example.org/Slovakia -->
<g id="edge8" class="edge">
<title>Rhttp://example.org/CzechRepublic&#45;&gt;Rhttp://example.org/Slovakia</title>
<path fill="none" stroke="black" d="M329.66,-466.2C441.79,-469.53 590.06,-473.93 698.34,-477.14"/>
<polygon fill="black" stroke="black" points="698.26,-480.64 708.36,-477.44 698.46,-473.65 698.26,-480.64"/>
<text text-anchor="middle" x="476.37" y="-477.22" font-family="Times,serif" font-size="14.00">http://example.org/eastBorder</text>
</g>
<!-- B_:landscape1 -->
<g id="node10" class="node">
<title>B_:landscape1</title>
<ellipse fill="none" stroke="green" cx="843.55" cy="-427.42" rx="18" ry="18"/>
</g>
<!-- Rhttp://example.org/CzechRepublic&#45;&gt;B_:landscape1 -->
<g id="edge9" class="edge">
<title>Rhttp://example.org/CzechRepublic&#45;&gt;B_:landscape1</title>
<path fill="none" stroke="black" d="M302.56,-450.72C319.65,-449.52 336.92,-448.38 353.37,-447.42 528.92,-437.18 740.2,-430.43 814.82,-428.22"/>
<polygon fill="black" stroke="black" points="815.32,-431.71 825.21,-427.91 815.11,-424.71 815.32,-431.71"/>
<text text-anchor="middle" x="476.37" y="-451.22" font-family="Times,serif" font-size="14.00">http://example.org/landscape</text>
</g>
<!-- Rhttp://example.org/ContinentalOceanicClimate -->
<g id="node11" class="node">
<title>Rhttp://example.org/ContinentalOceanicClimate</title>
<ellipse fill="none" stroke="blue" cx="843.55" cy="-373.42" rx="226.36" ry="18"/>
<text text-anchor="middle" x="843.55" y="-369.72" font-family="Times,serif" font-size="14.00">http://example.org/ContinentalOceanicClimate</text>
</g>
<!-- Rhttp://example.org/CzechRepublic&#45;&gt;Rhttp://example.org/ContinentalOceanicClimate -->
<g id="edge10" class="edge">
<title>Rhttp://example.org/CzechRepublic&#45;&gt;Rhttp://example.org/ContinentalOceanicClimate</title>
<path fill="none" stroke="black" d="M228.1,-444.52C264.08,-434.9 311.04,-423.4 353.37,-416.42 448.34,-400.77 554.69,-390.56 643.9,-384.04"/>
<polygon fill="black" stroke="black" points="644.42,-387.51 654.14,-383.3 643.91,-380.53 644.42,-387.51"/>
<text text-anchor="middle" x="476.37" y="-420.22" font-family="Times,serif" font-size="14.00">http://example.org/climate</text>
</g>
<!-- Rhttp://example.org/Prague -->
<g id="node12" class="node">
<title>Rhttp://example.org/Prague</title>
<ellipse fill="none" stroke="blue" cx="843.55" cy="-319.42" rx="132.68" ry="18"/>
<text text-anchor="middle" x="843.55" y="-315.72" font-family="Times,serif" font-size="14.00">http://example.org/Prague</text>
</g>
<!-- Rhttp://example.org/CzechRepublic&#45;&gt;Rhttp://example.org/Prague -->
<g id="edge11" class="edge">
<title>Rhttp://example.org/CzechRepublic&#45;&gt;Rhttp://example.org/Prague</title>
<path fill="none" stroke="black" d="M196.14,-443.53C231.09,-421.73 294.08,-385.68 353.37,-368.42 387.62,-358.46 585.68,-340.62 719.04,-329.43"/>
<polygon fill="black" stroke="black" points="719.66,-332.89 729.33,-328.57 719.07,-325.92 719.66,-332.89"/>
<text text-anchor="middle" x="476.37" y="-372.22" font-family="Times,serif" font-size="14.00">http://example.org/largestCity</text>
</g>
<!-- Rhttp://example.org/CzechRepublic&#45;&gt;Rhttp://example.org/Prague -->
<g id="edge12" class="edge">
<title>Rhttp://example.org/CzechRepublic&#45;&gt;Rhttp://example.org/Prague</title>
<path fill="none" stroke="black" d="M184.51,-443.44C213.95,-411.52 280.77,-346 353.37,-321.42 417.68,-299.66 592.46,-304.3 714.65,-310.85"/>
<polygon fill="black" stroke="black" points="714.65,-314.36 724.82,-311.41 715.03,-307.37 714.65,-314.36"/>
<text text-anchor="middle" x="476.37" y="-325.22" font-family="Times,serif" font-size="14.00">http://example.org/capital</text>
</g>
<!-- Rhttp://example.org/Brno -->
<g id="node13" class="node">
<title>Rhttp://example.org/Brno</title>
<ellipse fill="none" stroke="blue" cx="843.55" cy="-265.42" rx="122.38" ry="18"/>
<text text-anchor="middle" x="843.55" y="-261.72" font-family="Times,serif" font-size="14.00">http://example.org/Brno</text>
</g>
<!-- Rhttp://example.org/CzechRepublic&#45;&gt;Rhttp://example.org/Brno -->
<g id="edge13" class="edge">
<title>Rhttp://example.org/CzechRepublic&#45;&gt;Rhttp://example.org/Brno</title>
<path fill="none" stroke="black" d="M180.59,-443.4C206.64,-405.79 272.84,-319.58 353.37,-285.42 483.31,-230.32 650.49,-238.29 751.93,-250.69"/>
<polygon fill="black" stroke="black" points="751.79,-254.2 762.15,-251.98 752.66,-247.25 751.79,-254.2"/>
<text text-anchor="middle" x="476.37" y="-289.22" font-family="Times,serif" font-size="14.00">http://example.org/majorCity</text>
</g>
<!-- Rhttp://example.org/Ostrava -->
<g id="node14" class="node">
<title>Rhttp://example.org/Ostrava</title>
<ellipse fill="none" stroke="blue" cx="843.55" cy="-211.42" rx="135.68" ry="18"/>
<text text-anchor="middle" x="843.55" y="-207.72" font-family="Times,serif" font-size="14.00">http://example.org/Ostrava</text>
</g>
<!-- Rhttp://example.org/CzechRepublic&#45;&gt;Rhttp://example.org/Ostrava -->
<g id="edge14" class="edge">
<title>Rhttp://example.org/CzechRepublic&#45;&gt;Rhttp://example.org/Ostrava</title>
<path fill="none" stroke="black" d="M176.03,-443.21C196.12,-396.2 256.95,-271.12 353.37,-222.42 414.22,-191.69 591.03,-195.17 714.49,-202.04"/>
<polygon fill="black" stroke="black" points="714.59,-205.55 724.77,-202.63 714.99,-198.56 714.59,-205.55"/>
<text text-anchor="middle" x="476.37" y="-226.22" font-family="Times,serif" font-size="14.00">http://example.org/majorCity</text>
</g>
<!-- Rhttp://example.org/Plzen -->
<g id="node15" class="node">
<title>Rhttp://example.org/Plzen</title>
<ellipse fill="none" stroke="blue" cx="843.55" cy="-157.42" rx="124.58" ry="18"/>
<text text-anchor="middle" x="843.55" y="-153.72" font-family="Times,serif" font-size="14.00">http://example.org/Plzen</text>
</g>
<!-- Rhttp://example.org/CzechRepublic&#45;&gt;Rhttp://example.org/Plzen -->
<g id="edge15" class="edge">
<title>Rhttp://example.org/CzechRepublic&#45;&gt;Rhttp://example.org/Plzen</title>
<path fill="none" stroke="black" d="M174.03,-443.13C190.52,-390.49 246.04,-238.53 353.37,-177.42 413.41,-143.24 594.44,-144.41 718.6,-149.81"/>
<polygon fill="black" stroke="black" points="718.78,-153.32 728.93,-150.28 719.1,-146.33 718.78,-153.32"/>
<text text-anchor="middle" x="476.37" y="-181.22" font-family="Times,serif" font-size="14.00">http://example.org/majorCity</text>
</g>
<!-- Rhttp://example.org/Liberec -->
<g id="node16" class="node">
<title>Rhttp://example.org/Liberec</title>
<ellipse fill="none" stroke="blue" cx="843.55" cy="-103.42" rx="133.78" ry="18"/>
<text text-anchor="middle" x="843.55" y="-99.72" font-family="Times,serif" font-size="14.00">http://example.org/Liberec</text>
</g>
<!-- Rhttp://example.org/CzechRepublic&#45;&gt;Rhttp://example.org/Liberec -->
<g id="edge16" class="edge">
<title>Rhttp://example.org/CzechRepublic&#45;&gt;Rhttp://example.org/Liberec</title>
<path fill="none" stroke="black" d="M172.34,-443.05C185.05,-384.58 233.31,-202.25 353.37,-127.42 480.47,-48.21 664.24,-66.63 766.54,-85.84"/>
<polygon fill="black" stroke="black" points="766,-89.3 776.48,-87.76 767.32,-82.43 766,-89.3"/>
<text text-anchor="middle" x="476.37" y="-131.22" font-family="Times,serif" font-size="14.00">http://example.org/majorCity</text>
</g>
<!-- Rhttp://example.org/CountryProperty -->
<g id="node17" class="node">
<title>Rhttp://example.org/CountryProperty</title>
<ellipse fill="none" stroke="blue" cx="1467.81" cy="-858.42" rx="178.17" ry="18"/>
<text text-anchor="middle" x="1467.81" y="-854.72" font-family="Times,serif" font-size="14.00">http://example.org/CountryProperty</text>
</g>
<!-- Rhttp://example.org/Landlocked&#45;&gt;Rhttp://example.org/CountryProperty -->
<g id="edge17" class="edge">
<title>Rhttp://example.org/Landlocked&#45;&gt;Rhttp://example.org/CountryProperty</title>
<path fill="none" stroke="black" d="M995.98,-858.42C1081.36,-858.42 1188.77,-858.42 1279.43,-858.42"/>
<polygon fill="black" stroke="black" points="1279.55,-861.92 1289.55,-858.42 1279.55,-854.92 1279.55,-861.92"/>
<text text-anchor="middle" x="1179.73" y="-862.22" font-family="Times,serif" font-size="14.00">rdf:type</text>
</g>
<!-- Rhttp://example.org/Region -->
<g id="node18" class="node">
<title>Rhttp://example.org/Region</title>
<ellipse fill="none" stroke="blue" cx="1467.81" cy="-804.42" rx="131.88" ry="18"/>
<text text-anchor="middle" x="1467.81" y="-800.72" font-family="Times,serif" font-size="14.00">http://example.org/Region</text>
</g>
<!-- Rhttp://example.org/CentralEurope&#45;&gt;Rhttp://example.org/Region -->
<g id="edge18" class="edge">
<title>Rhttp://example.org/CentralEurope&#45;&gt;Rhttp://example.org/Region</title>
<path fill="none" stroke="black" d="M1011.31,-804.42C1109.52,-804.42 1232.39,-804.42 1325.76,-804.42"/>
<polygon fill="black" stroke="black" points="1325.85,-807.92 1335.85,-804.42 1325.85,-800.92 1325.85,-807.92"/>
<text text-anchor="middle" x="1179.73" y="-808.22" font-family="Times,serif" font-size="14.00">rdf:type</text>
</g>
<!-- Rhttp://example.org/Austria&#45;&gt;Rhttp://example.org/Country -->
<g id="edge19" class="edge">
<title>Rhttp://example.org/Austria&#45;&gt;Rhttp://example.org/Country</title>
<path fill="none" stroke="black" d="M958.73,-741.35C994.53,-737.27 1034.01,-731.5 1069.73,-723.42 1197.07,-694.63 1340.99,-640.36 1415.68,-610.48"/>
<polygon fill="black" stroke="black" points="1417.35,-613.59 1425.32,-606.61 1414.73,-607.09 1417.35,-613.59"/>
<text text-anchor="middle" x="1179.73" y="-721.22" font-family="Times,serif" font-size="14.00">rdf:type</text>
</g>
<!-- Rhttp://example.org/Germany&#45;&gt;Rhttp://example.org/Country -->
<g id="edge20" class="edge">
<title>Rhttp://example.org/Germany&#45;&gt;Rhttp://example.org/Country</title>
<path fill="none" stroke="black" d="M963.06,-630.71C1071.2,-621.85 1230.53,-608.79 1340.92,-599.74"/>
<polygon fill="black" stroke="black" points="1341.44,-603.21 1351.12,-598.91 1340.86,-596.23 1341.44,-603.21"/>
<text text-anchor="middle" x="1179.73" y="-623.22" font-family="Times,serif" font-size="14.00">rdf:type</text>
</g>
<!-- Rhttp://example.org/Poland&#45;&gt;Rhttp://example.org/Country -->
<g id="edge21" class="edge">
<title>Rhttp://example.org/Poland&#45;&gt;Rhttp://example.org/Country</title>
<path fill="none" stroke="black" d="M970.49,-539.84C1055.69,-543.56 1170.68,-549.98 1271.73,-560.42 1304.61,-563.82 1340.44,-568.78 1372.32,-573.64"/>
<polygon fill="black" stroke="black" points="1372.1,-577.15 1382.52,-575.22 1373.17,-570.23 1372.1,-577.15"/>
<text text-anchor="middle" x="1179.73" y="-564.22" font-family="Times,serif" font-size="14.00">rdf:type</text>
</g>
<!-- Rhttp://example.org/Slovakia&#45;&gt;Rhttp://example.org/Country -->
<g id="edge22" class="edge">
<title>Rhttp://example.org/Slovakia&#45;&gt;Rhttp://example.org/Country</title>
<path fill="none" stroke="black" d="M960.41,-491.1C1082.37,-501.67 1258.6,-518.19 1271.73,-526.42 1284.58,-534.48 1277.23,-546.83 1289.73,-555.42 1304.31,-565.45 1321.09,-572.71 1338.38,-577.93"/>
<polygon fill="black" stroke="black" points="1337.46,-581.31 1348.03,-580.63 1339.34,-574.57 1337.46,-581.31"/>
<text text-anchor="middle" x="1179.73" y="-530.22" font-family="Times,serif" font-size="14.00">rdf:type</text>
</g>
<!-- Rhttp://example.org/Landscape -->
<g id="node23" class="node">
<title>Rhttp://example.org/Landscape</title>
<ellipse fill="none" stroke="blue" cx="1467.81" cy="-411.42" rx="148.67" ry="18"/>
<text text-anchor="middle" x="1467.81" y="-407.72" font-family="Times,serif" font-size="14.00">http://example.org/Landscape</text>
</g>
<!-- B_:landscape1&#45;&gt;Rhttp://example.org/Landscape -->
<g id="edge28" class="edge">
<title>B_:landscape1&#45;&gt;Rhttp://example.org/Landscape</title>
<path fill="none" stroke="black" d="M861.62,-425.63C901.27,-421.56 1002.68,-411.74 1087.73,-408.42 1169.45,-405.24 1189.95,-407.79 1271.73,-408.42 1284.16,-408.52 1297.03,-408.65 1309.97,-408.8"/>
<polygon fill="black" stroke="black" points="1310.3,-412.31 1320.35,-408.93 1310.39,-405.31 1310.3,-412.31"/>
<text text-anchor="middle" x="1179.73" y="-412.22" font-family="Times,serif" font-size="14.00">rdf:type</text>
</g>
<!-- Rhttp://example.org/Hilly -->
<g id="node24" class="node">
<title>Rhttp://example.org/Hilly</title>
<ellipse fill="none" stroke="blue" cx="1467.81" cy="-357.42" rx="121.58" ry="18"/>
<text text-anchor="middle" x="1467.81" y="-353.72" font-family="Times,serif" font-size="14.00">http://example.org/Hilly</text>
</g>
<!-- B_:landscape1&#45;&gt;Rhttp://example.org/Hilly -->
<g id="edge29" class="edge">
<title>B_:landscape1&#45;&gt;Rhttp://example.org/Hilly</title>
<path fill="none" stroke="black" d="M861.63,-428.23C900.2,-429.44 996.38,-429.08 1069.73,-400.42 1078.92,-396.83 1078.47,-390.83 1087.73,-387.42 1170.01,-357.18 1268.93,-350.24 1345.08,-350.56"/>
<polygon fill="black" stroke="black" points="1345.17,-354.07 1355.2,-350.65 1345.23,-347.07 1345.17,-354.07"/>
<text text-anchor="middle" x="1179.73" y="-391.22" font-family="Times,serif" font-size="14.00">http://example.org/type</text>
</g>
<!-- B_:area78sqkm -->
<g id="node25" class="node">
<title>B_:area78sqkm</title>
<ellipse fill="none" stroke="green" cx="1467.81" cy="-528.42" rx="18" ry="18"/>
</g>
<!-- B_:landscape1&#45;&gt;B_:area78sqkm -->
<g id="edge30" class="edge">
<title>B_:landscape1&#45;&gt;B_:area78sqkm</title>
<path fill="none" stroke="black" d="M861.76,-428.02C899.81,-429.64 993.72,-435.41 1069.73,-454.42 1078.06,-456.51 1079.41,-459.32 1087.73,-461.42 1167.63,-481.62 1192.33,-462.34 1271.73,-484.42 1280.16,-486.77 1281.39,-489.76 1289.73,-492.42 1341.73,-509.04 1404.85,-519.7 1439.95,-524.82"/>
<polygon fill="black" stroke="black" points="1439.51,-528.3 1449.9,-526.24 1440.49,-521.37 1439.51,-528.3"/>
<text text-anchor="middle" x="1179.73" y="-488.22" font-family="Times,serif" font-size="14.00">http://example.org/covers</text>
</g>
<!-- B_:area30sqmi -->
<g id="node26" class="node">
<title>B_:area30sqmi</title>
<ellipse fill="none" stroke="green" cx="1467.81" cy="-465.42" rx="18" ry="18"/>
</g>
<!-- B_:landscape1&#45;&gt;B_:area30sqmi -->
<g id="edge31" class="edge">
<title>B_:landscape1&#45;&gt;B_:area30sqmi</title>
<path fill="none" stroke="black" d="M861.66,-427.86C919.43,-429.41 1112.52,-435.14 1271.73,-446.42 1331.82,-450.68 1402.09,-458.14 1439.73,-462.33"/>
<polygon fill="black" stroke="black" points="1439.55,-465.83 1449.88,-463.47 1440.33,-458.88 1439.55,-465.83"/>
<text text-anchor="middle" x="1179.73" y="-450.22" font-family="Times,serif" font-size="14.00">http://example.org/covers</text>
</g>
<!-- Rhttp://example.org/Climate -->
<g id="node19" class="node">
<title>Rhttp://example.org/Climate</title>
<ellipse fill="none" stroke="blue" cx="1467.81" cy="-195.42" rx="135.68" ry="18"/>
<text text-anchor="middle" x="1467.81" y="-191.72" font-family="Times,serif" font-size="14.00">http://example.org/Climate</text>
</g>
<!-- Rhttp://example.org/ContinentalOceanicClimate&#45;&gt;Rhttp://example.org/Climate -->
<g id="edge23" class="edge">
<title>Rhttp://example.org/ContinentalOceanicClimate&#45;&gt;Rhttp://example.org/Climate</title>
<path fill="none" stroke="black" d="M1044.53,-365.14C1053.65,-360.05 1062.14,-353.87 1069.73,-346.42 1111.35,-305.56 1044.82,-255.94 1087.73,-216.42 1172.18,-138.65 1317.19,-156.98 1401.26,-176.65"/>
<polygon fill="black" stroke="black" points="1400.66,-180.11 1411.21,-179.05 1402.3,-173.3 1400.66,-180.11"/>
<text text-anchor="middle" x="1179.73" y="-220.22" font-family="Times,serif" font-size="14.00">rdf:type</text>
</g>
<!-- Rhttp://example.org/Continental -->
<g id="node20" class="node">
<title>Rhttp://example.org/Continental</title>
<ellipse fill="none" stroke="blue" cx="1467.81" cy="-249.42" rx="153.27" ry="18"/>
<text text-anchor="middle" x="1467.81" y="-245.72" font-family="Times,serif" font-size="14.00">http://example.org/Continental</text>
</g>
<!-- Rhttp://example.org/ContinentalOceanicClimate&#45;&gt;Rhttp://example.org/Continental -->
<g id="edge24" class="edge">
<title>Rhttp://example.org/ContinentalOceanicClimate&#45;&gt;Rhttp://example.org/Continental</title>
<path fill="none" stroke="black" d="M1043.07,-364.82C1052.66,-359.84 1061.64,-353.77 1069.73,-346.42 1097.36,-321.35 1059.12,-288.38 1087.73,-264.42 1124.21,-233.87 1240.27,-233.03 1334.45,-238.09"/>
<polygon fill="black" stroke="black" points="1334.48,-241.6 1344.66,-238.67 1334.87,-234.61 1334.48,-241.6"/>
<text text-anchor="middle" x="1179.73" y="-268.22" font-family="Times,serif" font-size="14.00">http://example.org/type</text>
</g>
<!-- Rhttp://example.org/Oceanic -->
<g id="node21" class="node">
<title>Rhttp://example.org/Oceanic</title>
<ellipse fill="none" stroke="blue" cx="1467.81" cy="-303.42" rx="135.68" ry="18"/>
<text text-anchor="middle" x="1467.81" y="-299.72" font-family="Times,serif" font-size="14.00">http://example.org/Oceanic</text>
</g>
<!-- Rhttp://example.org/ContinentalOceanicClimate&#45;&gt;Rhttp://example.org/Oceanic -->
<g id="edge25" class="edge">
<title>Rhttp://example.org/ContinentalOceanicClimate&#45;&gt;Rhttp://example.org/Oceanic</title>
<path fill="none" stroke="black" d="M1029.52,-363.17C1043.55,-358.84 1057.13,-353.34 1069.73,-346.42 1080.8,-340.34 1076.47,-330.15 1087.73,-324.42 1176.34,-279.39 1292.1,-280.12 1372.27,-288.33"/>
<polygon fill="black" stroke="black" points="1372.04,-291.83 1382.36,-289.42 1372.79,-284.87 1372.04,-291.83"/>
<text text-anchor="middle" x="1179.73" y="-328.22" font-family="Times,serif" font-size="14.00">http://example.org/type</text>
</g>
<!-- Rhttp://example.org/ClimateType -->
<g id="node22" class="node">
<title>Rhttp://example.org/ClimateType</title>
<ellipse fill="none" stroke="blue" cx="2029.88" cy="-277.42" rx="157.87" ry="18"/>
<text text-anchor="middle" x="2029.88" y="-273.72" font-family="Times,serif" font-size="14.00">http://example.org/ClimateType</text>
</g>
<!-- Rhttp://example.org/Continental&#45;&gt;Rhttp://example.org/ClimateType -->
<g id="edge26" class="edge">
<title>Rhttp://example.org/Continental&#45;&gt;Rhttp://example.org/ClimateType</title>
<path fill="none" stroke="black" d="M1609.43,-256.42C1676.22,-259.75 1757.18,-263.78 1829.9,-267.42 1844.56,-268.16 1859.84,-268.92 1875.11,-269.69"/>
<polygon fill="black" stroke="black" points="1874.98,-273.19 1885.15,-270.19 1875.33,-266.2 1874.98,-273.19"/>
<text text-anchor="middle" x="1746.9" y="-271.22" font-family="Times,serif" font-size="14.00">rdf:type</text>
</g>
<!-- Rhttp://example.org/Oceanic&#45;&gt;Rhttp://example.org/ClimateType -->
<g id="edge27" class="edge">
<title>Rhttp://example.org/Oceanic&#45;&gt;Rhttp://example.org/ClimateType</title>
<path fill="none" stroke="black" d="M1596.25,-297.51C1678.54,-293.69 1786.14,-288.69 1873.44,-284.64"/>
<polygon fill="black" stroke="black" points="1873.62,-288.14 1883.44,-284.18 1873.29,-281.14 1873.62,-288.14"/>
<text text-anchor="middle" x="1746.9" y="-297.22" font-family="Times,serif" font-size="14.00">rdf:type</text>
</g>
<!-- Rhttp://example.org/LandscapeType -->
<g id="node27" class="node">
<title>Rhttp://example.org/LandscapeType</title>
<ellipse fill="none" stroke="blue" cx="2029.88" cy="-348.42" rx="170.87" ry="18"/>
<text text-anchor="middle" x="2029.88" y="-344.72" font-family="Times,serif" font-size="14.00">http://example.org/LandscapeType</text>
</g>
<!-- Rhttp://example.org/Hilly&#45;&gt;Rhttp://example.org/LandscapeType -->
<g id="edge32" class="edge">
<title>Rhttp://example.org/Hilly&#45;&gt;Rhttp://example.org/LandscapeType</title>
<path fill="none" stroke="black" d="M1588.96,-355.49C1665.25,-354.27 1765.35,-352.66 1850.79,-351.29"/>
<polygon fill="black" stroke="black" points="1850.92,-354.78 1860.86,-351.12 1850.81,-347.78 1850.92,-354.78"/>
<text text-anchor="middle" x="1746.9" y="-357.22" font-family="Times,serif" font-size="14.00">rdf:type</text>
</g>
<!-- L78871|Datatype: xsd:integer -->
<g id="node28" class="node">
<title>L78871|Datatype: xsd:integer</title>
<polygon fill="none" stroke="black" points="1943.88,-505.42 1943.88,-551.42 2115.88,-551.42 2115.88,-505.42 1943.88,-505.42"/>
<text text-anchor="middle" x="2029.88" y="-536.22" font-family="Times,serif" font-size="14.00">78871</text>
<polyline fill="none" stroke="black" points="1943.88,-528.42 2115.88,-528.42 "/>
<text text-anchor="middle" x="2029.88" y="-513.22" font-family="Times,serif" font-size="14.00">Datatype: xsd:integer</text>
</g>
<!-- B_:area78sqkm&#45;&gt;L78871|Datatype: xsd:integer -->
<g id="edge33" class="edge">
<title>B_:area78sqkm&#45;&gt;L78871|Datatype: xsd:integer</title>
<path fill="none" stroke="black" d="M1485.88,-528.42C1552.28,-528.42 1796.46,-528.42 1933.67,-528.42"/>
<polygon fill="black" stroke="black" points="1933.77,-531.92 1943.77,-528.42 1933.77,-524.92 1933.77,-531.92"/>
<text text-anchor="middle" x="1746.9" y="-532.22" font-family="Times,serif" font-size="14.00">rdf:value</text>
</g>
<!-- Rhttp://example.org/squareKilometers -->
<g id="node29" class="node">
<title>Rhttp://example.org/squareKilometers</title>
<ellipse fill="none" stroke="blue" cx="2029.88" cy="-588.42" rx="181.97" ry="18"/>
<text text-anchor="middle" x="2029.88" y="-584.72" font-family="Times,serif" font-size="14.00">http://example.org/squareKilometers</text>
</g>
<!-- B_:area78sqkm&#45;&gt;Rhttp://example.org/squareKilometers -->
<g id="edge34" class="edge">
<title>B_:area78sqkm&#45;&gt;Rhttp://example.org/squareKilometers</title>
<path fill="none" stroke="black" d="M1485.88,-530.25C1546.53,-536.75 1755.49,-559.13 1895.79,-574.17"/>
<polygon fill="black" stroke="black" points="1895.45,-577.65 1905.77,-575.23 1896.2,-570.69 1895.45,-577.65"/>
<text text-anchor="middle" x="1746.9" y="-569.22" font-family="Times,serif" font-size="14.00">http://example.org/unit</text>
</g>
<!-- L30452|Datatype: xsd:integer -->
<g id="node30" class="node">
<title>L30452|Datatype: xsd:integer</title>
<polygon fill="none" stroke="black" points="1943.88,-385.42 1943.88,-431.42 2115.88,-431.42 2115.88,-385.42 1943.88,-385.42"/>
<text text-anchor="middle" x="2029.88" y="-416.22" font-family="Times,serif" font-size="14.00">30452</text>
<polyline fill="none" stroke="black" points="1943.88,-408.42 2115.88,-408.42 "/>
<text text-anchor="middle" x="2029.88" y="-393.22" font-family="Times,serif" font-size="14.00">Datatype: xsd:integer</text>
</g>
<!-- B_:area30sqmi&#45;&gt;L30452|Datatype: xsd:integer -->
<g id="edge35" class="edge">
<title>B_:area30sqmi&#45;&gt;L30452|Datatype: xsd:integer</title>
<path fill="none" stroke="black" d="M1485.88,-463.69C1552.28,-456.93 1796.46,-432.08 1933.67,-418.11"/>
<polygon fill="black" stroke="black" points="1934.17,-421.58 1943.77,-417.09 1933.47,-414.62 1934.17,-421.58"/>
<text text-anchor="middle" x="1746.9" y="-448.22" font-family="Times,serif" font-size="14.00">rdf:value</text>
</g>
<!-- Rhttp://example.org/squareMiles -->
<g id="node31" class="node">
<title>Rhttp://example.org/squareMiles</title>
<ellipse fill="none" stroke="blue" cx="2029.88" cy="-468.42" rx="156.77" ry="18"/>
<text text-anchor="middle" x="2029.88" y="-464.72" font-family="Times,serif" font-size="14.00">http://example.org/squareMiles</text>
</g>
<!-- B_:area30sqmi&#45;&gt;Rhttp://example.org/squareMiles -->
<g id="edge36" class="edge">
<title>B_:area30sqmi&#45;&gt;Rhttp://example.org/squareMiles</title>
<path fill="none" stroke="black" d="M1485.88,-465.52C1541.95,-465.82 1724.79,-466.79 1862.95,-467.53"/>
<polygon fill="black" stroke="black" points="1863.21,-471.04 1873.23,-467.59 1863.25,-464.04 1863.21,-471.04"/>
<text text-anchor="middle" x="1746.9" y="-470.22" font-family="Times,serif" font-size="14.00">http://example.org/unit</text>
</g>
</g>
</svg>

